<svg width="20" height="20" viewBox="0 0 20 20" fill="none" xmlns="http://www.w3.org/2000/svg">
<g clip-path="url(#clip0_3955_523)">
<path d="M19.2676 7.55742L12.9468 1.23575C12.1645 0.455743 11.1049 0.0177307 10.0001 0.0177307C8.89541 0.0177307 7.83576 0.455743 7.05347 1.23575L0.732632 7.55742C0.499653 7.78891 0.31494 8.06434 0.189201 8.36774C0.0634614 8.67115 -0.000803264 8.99649 0.000132137 9.32492V17.5058C0.000132137 18.1688 0.263524 18.8047 0.732365 19.2735C1.20121 19.7424 1.83709 20.0058 2.50013 20.0058H17.5001C18.1632 20.0058 18.7991 19.7424 19.2679 19.2735C19.7367 18.8047 20.0001 18.1688 20.0001 17.5058V9.32492C20.0011 8.99649 19.9368 8.67115 19.8111 8.36774C19.6853 8.06434 19.5006 7.78891 19.2676 7.55742ZM12.5001 18.3391H7.50013V15.0608C7.50013 14.3977 7.76353 13.7618 8.23237 13.293C8.70121 12.8241 9.33709 12.5608 10.0001 12.5608C10.6632 12.5608 11.2991 12.8241 11.7679 13.293C12.2367 13.7618 12.5001 14.3977 12.5001 15.0608V18.3391ZM18.3335 17.5058C18.3335 17.7268 18.2457 17.9387 18.0894 18.095C17.9331 18.2513 17.7211 18.3391 17.5001 18.3391H14.1668V15.0608C14.1668 13.9557 13.7278 12.8959 12.9464 12.1145C12.165 11.3331 11.1052 10.8941 10.0001 10.8941C8.89506 10.8941 7.83526 11.3331 7.05385 12.1145C6.27245 12.8959 5.83347 13.9557 5.83347 15.0608V18.3391H2.50013C2.27912 18.3391 2.06716 18.2513 1.91088 18.095C1.7546 17.9387 1.6668 17.7268 1.6668 17.5058V9.32492C1.66757 9.10407 1.75529 8.89241 1.91097 8.73575L8.2318 2.41659C8.70155 1.94903 9.33735 1.68654 10.0001 1.68654C10.6629 1.68654 11.2987 1.94903 11.7685 2.41659L18.0893 8.73825C18.2444 8.89429 18.332 9.10494 18.3335 9.32492V17.5058Z" fill="#374957"/>
</g>
<defs>
<clipPath id="clip0_3955_523">
<rect width="20" height="20" fill="white"/>
</clipPath>
</defs>
</svg>
